<?xml version="1.0" encoding="iso-8859-1"?>
<!-- Generator: Adobe Illustrator 21.0.0, SVG Export Plug-In . SVG Version: 6.00 Build 0)  -->
<svg version="1.1" id="Capa_1" xmlns="http://www.w3.org/2000/svg" xmlns:xlink="http://www.w3.org/1999/xlink" x="0px" y="0px"
	 viewBox="0 0 512 512" style="enable-background:new 0 0 512 512;" xml:space="preserve">
<circle style="fill:#FFD400;" cx="256" cy="256" r="256"/>
<path style="fill:#FFB000;" d="M512,256c0-25.889-3.857-50.873-11.004-74.427L395.214,75.791l-18.961,132.531L243.722,75.791
	L116.611,414.179l93.763,93.763C225.18,510.606,240.427,512,256,512C397.385,512,512,397.385,512,256z"/>
<rect x="116.61" y="75.79" style="fill:#FF432E;" width="127.11" height="338.39"/>
<rect x="179.98" y="75.79" style="fill:#DB0404;" width="63.746" height="338.39"/>
<circle style="fill:#FFFFFF;" cx="180.17" cy="339.29" r="33.974"/>
<path style="fill:#F2F6FC;" d="M180.167,305.316c-0.064,0-0.127,0.004-0.191,0.005v67.939c0.064,0,0.127,0.005,0.191,0.005
	c18.763,0,33.974-15.211,33.974-33.974S198.93,305.316,180.167,305.316z"/>
<rect x="136.77" y="96.89" style="fill:#FF9B87;" width="86.79" height="167.58"/>
<rect x="179.98" y="96.89" style="fill:#FF8870;" width="43.584" height="167.58"/>
<rect x="152.01" y="120.18" style="fill:#FFFFFF;" width="56.31" height="18.225"/>
<rect x="179.98" y="120.18" style="fill:#F2F6FC;" width="28.348" height="18.225"/>
<rect x="152.01" y="153.93" style="fill:#FFFFFF;" width="56.31" height="18.225"/>
<rect x="179.98" y="153.93" style="fill:#F2F6FC;" width="28.348" height="18.225"/>
<rect x="152.01" y="187.68" style="fill:#FFFFFF;" width="56.31" height="18.225"/>
<rect x="179.98" y="187.68" style="fill:#F2F6FC;" width="28.348" height="18.225"/>
<rect x="152.01" y="221.43" style="fill:#FFFFFF;" width="56.31" height="18.225"/>
<rect x="179.98" y="221.43" style="fill:#F2F6FC;" width="28.348" height="18.225"/>
<rect x="268.1" y="75.79" style="fill:#4A7AFF;" width="127.11" height="338.39"/>
<rect x="331.17" y="75.79" style="fill:#2864F0;" width="64.05" height="338.39"/>
<circle style="fill:#FFFFFF;" cx="331.66" cy="339.29" r="33.974"/>
<path style="fill:#F2F6FC;" d="M331.659,305.316c-0.165,0-0.328,0.01-0.492,0.012v67.924c0.165,0.002,0.327,0.012,0.492,0.012
	c18.763,0,33.974-15.211,33.974-33.974S350.423,305.316,331.659,305.316z"/>
<rect x="288.27" y="96.89" style="fill:#A3D4FF;" width="86.79" height="167.58"/>
<rect x="331.17" y="96.89" style="fill:#87C7FF;" width="43.886" height="167.58"/>
<rect x="303.5" y="120.18" style="fill:#FFFFFF;" width="56.31" height="18.225"/>
<rect x="331.17" y="120.18" style="fill:#F2F6FC;" width="28.649" height="18.225"/>
<rect x="303.5" y="153.93" style="fill:#FFFFFF;" width="56.31" height="18.225"/>
<rect x="331.17" y="153.93" style="fill:#F2F6FC;" width="28.649" height="18.225"/>
<rect x="303.5" y="187.68" style="fill:#FFFFFF;" width="56.31" height="18.225"/>
<rect x="331.17" y="187.68" style="fill:#F2F6FC;" width="28.649" height="18.225"/>
<rect x="303.5" y="221.43" style="fill:#FFFFFF;" width="56.31" height="18.225"/>
<rect x="331.17" y="221.43" style="fill:#F2F6FC;" width="28.649" height="18.225"/>
<g>
</g>
<g>
</g>
<g>
</g>
<g>
</g>
<g>
</g>
<g>
</g>
<g>
</g>
<g>
</g>
<g>
</g>
<g>
</g>
<g>
</g>
<g>
</g>
<g>
</g>
<g>
</g>
<g>
</g>
</svg>
