<?xml version="1.0" encoding="iso-8859-1"?>
<!-- Generator: Adobe Illustrator 21.0.0, SVG Export Plug-In . SVG Version: 6.00 Build 0)  -->
<svg version="1.1" id="Capa_1" xmlns="http://www.w3.org/2000/svg" xmlns:xlink="http://www.w3.org/1999/xlink" x="0px" y="0px"
	 viewBox="0 0 512 512" style="enable-background:new 0 0 512 512;" xml:space="preserve">
<circle style="fill:#4A7AFF;" cx="256" cy="256" r="256"/>
<path style="fill:#2864F0;" d="M511.814,265.289L389.333,142.807l-279,36.907l-6.099,154.604l176.489,176.489
	C407.471,498.66,507.218,394.099,511.814,265.289z"/>
<polygon style="fill:#FFFFFF;" points="321.526,75 158.5,75 158.5,374.939 389.333,374.939 389.333,142.807 "/>
<polygon style="fill:#F2F6FC;" points="389.333,142.807 321.526,75 273.429,75 273.429,374.939 389.333,374.939 "/>
<g>
	<polygon style="fill:#DCE1EB;" points="321.526,142.807 389.333,142.807 321.526,75 	"/>
	<rect x="189.52" y="174.55" style="fill:#DCE1EB;" width="168.8" height="15.15"/>
</g>
<rect x="273.43" y="174.55" style="fill:#CDD2E1;" width="84.89" height="15.15"/>
<rect x="189.52" y="210.25" style="fill:#DCE1EB;" width="168.8" height="15.15"/>
<rect x="273.43" y="210.25" style="fill:#CDD2E1;" width="84.89" height="15.15"/>
<rect x="189.52" y="245.96" style="fill:#DCE1EB;" width="168.8" height="15.15"/>
<rect x="273.43" y="245.96" style="fill:#CDD2E1;" width="84.89" height="15.15"/>
<rect x="189.52" y="281.67" style="fill:#DCE1EB;" width="168.8" height="15.15"/>
<rect x="273.43" y="281.67" style="fill:#CDD2E1;" width="84.89" height="15.15"/>
<rect x="189.52" y="317.37" style="fill:#DCE1EB;" width="84.4" height="15.15"/>
<rect x="270.678" y="296.661" transform="matrix(0.7071 -0.7071 0.7071 0.7071 -170.3129 324.2581)" style="fill:#FF9912;" width="71.159" height="142.109"/>
<rect x="301.294" y="283.973" transform="matrix(0.7071 -0.7071 0.7071 0.7071 -157.6259 329.5129)" style="fill:#E88813;" width="35.3" height="142.109"/>
<path style="fill:#FFD400;" d="M272.87,165.683c-46.567-46.567-122.068-46.567-168.636,0c-46.567,46.567-46.567,122.068,0,168.636
	c46.567,46.567,122.068,46.567,168.636,0C319.437,287.751,319.437,212.251,272.87,165.683z M240.526,301.975
	c-28.705,28.705-75.244,28.705-103.949,0s-28.705-75.244,0-103.949s75.244-28.705,103.949,0S269.231,273.271,240.526,301.975z"/>
<path style="fill:#FFB000;" d="M240.526,198.026c28.637,28.637,28.699,75.022,0.196,103.743l32.346,32.346
	c46.366-46.583,46.302-121.932-0.198-168.432s-121.849-46.565-168.432-0.198l32.346,32.346
	C165.504,169.328,211.889,169.389,240.526,198.026z"/>
<g>
</g>
<g>
</g>
<g>
</g>
<g>
</g>
<g>
</g>
<g>
</g>
<g>
</g>
<g>
</g>
<g>
</g>
<g>
</g>
<g>
</g>
<g>
</g>
<g>
</g>
<g>
</g>
<g>
</g>
</svg>
